<?xml version="1.0" encoding="UTF-8" standalone="no"?>
<!-- Created with Inkscape (http://www.inkscape.org/) -->

<svg
   version="1.1"
   id="svg1"
   width="500"
   height="500"
   viewBox="0 0 500 500"
   sodipodi:docname="LOGO.svg"
   inkscape:version="1.3.2 (091e20e, 2023-11-25, custom)"
   inkscape:export-filename="LOGO.png"
   inkscape:export-xdpi="96"
   inkscape:export-ydpi="96"
   xmlns:inkscape="http://www.inkscape.org/namespaces/inkscape"
   xmlns:sodipodi="http://sodipodi.sourceforge.net/DTD/sodipodi-0.dtd"
   xmlns="http://www.w3.org/2000/svg"
   xmlns:svg="http://www.w3.org/2000/svg">
  <defs
     id="defs1" />
  <sodipodi:namedview
     id="namedview1"
     pagecolor="#505050"
     bordercolor="#eeeeee"
     borderopacity="1"
     inkscape:showpageshadow="0"
     inkscape:pageopacity="0"
     inkscape:pagecheckerboard="0"
     inkscape:deskcolor="#505050"
     inkscape:zoom="0.57797693"
     inkscape:cx="403.99536"
     inkscape:cy="393.61433"
     inkscape:window-width="1920"
     inkscape:window-height="1051"
     inkscape:window-x="-9"
     inkscape:window-y="-9"
     inkscape:window-maximized="1"
     inkscape:current-layer="g1" />
  <g
     inkscape:groupmode="layer"
     inkscape:label="Image"
     id="g1">
    <text
       xml:space="preserve"
       style="font-style:normal;font-variant:normal;font-weight:normal;font-stretch:normal;font-size:32px;font-family:sans-serif;-inkscape-font-specification:'sans-serif, Normal';font-variant-ligatures:normal;font-variant-caps:normal;font-variant-numeric:normal;font-variant-east-asian:normal;fill:none;stroke:#1e2643;stroke-width:12;stroke-linecap:round;stroke-linejoin:round;stroke-dasharray:none"
       x="632.50659"
       y="384.15292"
       id="text1"><tspan
         sodipodi:role="line"
         id="tspan1"
         x="632.50659"
         y="384.15292" /></text>
    <g
       id="g7"
       transform="matrix(1.405879,0,0,1.405879,-653.84751,-299.53237)">
      <circle
         style="fill:#5aabfc;fill-opacity:1;stroke:#1e2643;stroke-width:12;stroke-linecap:round;stroke-linejoin:round;stroke-dasharray:none"
         id="path1"
         cx="642.90564"
         cy="390.88171"
         r="155.98566" />
      <path
         id="path1-7"
         style="fill:#4176ac;fill-opacity:1;stroke:none;stroke-width:11.9431;stroke-linecap:round;stroke-linejoin:round"
         d="m 783.54584,444.30322 -160.95676,-140.65748 -23.94969,143.38585 80.74533,89.60587 c 48.87532,-11.45779 85.08312,-46.11208 104.16112,-92.33424 z"
         sodipodi:nodetypes="ccccc" />
      <path
         id="path1-9"
         style="fill:none;stroke:#c6e2fe;stroke-width:24;stroke-linecap:round;stroke-linejoin:round;stroke-opacity:1"
         d="m 515.34583,361.34313 c 1.11018,-5.92087 -0.45627,-0.85946 1.33072,-6.61236"
         sodipodi:nodetypes="cc" />
      <path
         id="path4"
         style="fill:none;stroke:#c6e2fe;stroke-width:20.7815;stroke-linecap:round;stroke-linejoin:round;stroke-opacity:1"
         d="m 531.10752,324.15009 a 135.06755,135.06755 0 0 1 73.62545,-57.91631" />
      <path
         style="font-size:32px;font-family:Righteous;-inkscape-font-specification:'Righteous, Normal';fill:#d4e9fe;fill-opacity:1;stroke:#1e2643;stroke-width:8;stroke-linecap:round;stroke-linejoin:round;stroke-dasharray:none"
         d="m 695.13942,419.70424 c 0,7.60551 -1.29776,14.54705 -3.89327,20.82461 -2.59555,6.27757 -6.12669,11.6799 -10.59342,16.20701 -4.46673,4.46673 -9.71815,7.93748 -15.75427,10.41227 -5.97573,2.47483 -12.40419,3.71225 -19.28537,3.71225 -6.82083,0 -13.24931,-1.26759 -19.28542,-3.80276 -5.97574,-2.53517 -11.22716,-6.06631 -15.75427,-10.59342 -4.46673,-4.52707 -7.99785,-9.89921 -10.59336,-16.11643 -2.59555,-6.27757 -3.89333,-13.15874 -3.89333,-20.64353 l -0.43254,-113.44599 h 24.80845 l 0.43254,72.52111 c 1.32795,-1.69011 2.92753,-3.19914 4.79874,-4.52709 1.93156,-1.32795 3.98384,-2.41445 6.15684,-3.2595 2.23335,-0.84506 4.52707,-1.47884 6.88118,-1.90135 2.35407,-0.48289 4.64779,-0.72433 6.88117,-0.72433 6.88118,0 13.30964,1.29775 19.28537,3.89326 6.03612,2.53517 11.28754,6.09648 15.75427,10.68393 4.46673,4.58745 7.99787,10.01996 10.59342,16.29752 2.59551,6.21722 3.89327,13.03803 3.89327,20.46244 z m -24.89896,0 c 0,-3.74239 -0.66397,-7.21315 -1.99192,-10.41227 -1.26761,-3.25951 -3.01808,-6.06631 -5.25143,-8.42042 -2.23338,-2.35407 -4.8591,-4.19507 -7.87716,-5.52301 -2.95768,-1.32795 -6.12663,-1.99192 -9.50686,-1.99192 -3.38023,0 -6.57937,0.7545 -9.59742,2.26351 -2.95772,1.44867 -5.55325,3.41042 -7.7866,5.88525 -2.23338,2.41445 -3.98385,5.22123 -5.25142,8.42035 -1.26761,3.13878 -1.90141,6.39828 -1.90141,9.77851 0,3.74239 0.6338,7.21317 1.90141,10.41234 1.26757,3.19912 3.01804,5.97573 5.25142,8.32984 2.23335,2.35407 4.82888,4.22526 7.7866,5.61359 3.01805,1.32795 6.21719,1.99192 9.59742,1.99192 3.38023,0 6.54918,-0.66397 9.50686,-1.99192 3.01806,-1.38833 5.64378,-3.25952 7.87716,-5.61359 2.23335,-2.35411 3.98382,-5.13072 5.25143,-8.32984 1.32795,-3.19917 1.99192,-6.66995 1.99192,-10.41234 z"
         id="text2"
         aria-label="b"
         sodipodi:nodetypes="ssccscccsccccccscscsscscscccssscscscs" />
      <circle
         style="fill:#c6e2fe;fill-opacity:1;stroke:none;stroke-width:10.8837;stroke-linecap:round;stroke-linejoin:round;stroke-dasharray:none;stroke-opacity:1"
         id="path6"
         cx="736.62109"
         cy="461.52362"
         r="16.869184" />
    </g>
  </g>
</svg>
